# xmcd CD database file
# Copyright (C) 1993-1998 Ti Kan
#
# Track frame offsets:
#	150
#	20560
#	37690
#	52597
#	64290
#
# Disc length: 1172 seconds
#
# Revision: 1
# Processed by: cddbd v1.4b41PL1 Copyright (c) Steve Scherf et al.
# Submitted via: CDValet v3.01 - Copyright (c) 1997 Greg Leichner
#
DISCID=32049205
DTITLE=Rosanne Cash - Collector's Item!
DYEAR=1900
DGENRE=
TTITLE0=You Won't Let Me In
TTITLE1=What We Really Want
TTITLE2=Roses In The Fire
TTITLE3=Wouldn't It Be Lovely
TTITLE4=All Come True
EXTD=KZON FM 101.5 Radio Station Promo CD
EXTT0=
EXTT1=
EXTT2=
EXTT3=
EXTT4=
PLAYORDER=
